<svg width="144" height="144" viewBox="0 0 144 144" xmlns="http://www.w3.org/2000/svg" version="1.1">
  <path d="m45.65 97.58v-6.7l41.9-14.7 0.7 1.3 1.4-38.6c0.1-2.7-0.9-5.2-2.2-5.7l-69.8-23.4c-5.9-2-11.1 1.3-11.1 7.4v117.6c0 5.5 4.9 7 10.5 3.7l24-14.3v5c0 2.2 2 2.8 4.2 1.5l27.3-16.3c0.5-0.3 1-1.4 1-2.4l0.3-7.4 11.3-6.7c1.4-0.8 2.5-3.5 2.6-6.1l0.2-6.5-42.3 12.3zm0-45.2 19-17.9 4.2 7.6-23.1 19v-8.7zm0 14.4 26.2-19.3 4.6 8.4-30.8 18.8v-7.9zm0 13.1 34.4-17.4 4.5 8.2-38.9 15.9v-6.7z" fill="#00B494"/>
  <path d="m97.75 47.88l39.7 17.7l-38-61z" fill="#00B494"/>
  <path d="m97.05 3.78l-30.1 25.7l28.6 12.7z" fill="#2E4051"/>
  <path d="m99.55 51.28l-4.3-1.9l0.2-4.6l-28.4-12.6l30 49z" fill="#2E4051"/>
  <path d="m136.95 67.98l-35.1-15.6l-2.4 29.1z" fill="#2E4051"/>
</svg>
