<?xml version="1.0" standalone="no"?>
<!DOCTYPE svg PUBLIC "-//W3C//DTD SVG 20010904//EN"
 "http://www.w3.org/TR/2001/REC-SVG-20010904/DTD/svg10.dtd">
<svg version="1.0" xmlns="http://www.w3.org/2000/svg"
 width="700.000000pt" height="700.000000pt" viewBox="0 0 700.000000 700.000000"
 preserveAspectRatio="xMidYMid meet">
<metadata>
Created by potrace 1.11, written by Peter Selinger 2001-2013
</metadata>
<g transform="translate(0.000000,700.000000) scale(0.100000,-0.100000)"
fill="#000000" stroke="none">
<path d="M4595 6714 c-60 -53 -132 -114 -159 -137 -27 -23 -86 -73 -131 -112
-44 -38 -105 -90 -134 -115 -30 -25 -124 -105 -210 -179 -172 -148 -216 -185
-341 -291 -47 -39 -98 -84 -115 -99 -16 -15 -51 -44 -76 -64 l-47 -38 -748
251 c-412 138 -785 262 -829 277 -44 14 -109 36 -145 48 -87 31 -399 136 -419
141 -9 2 -110 37 -226 76 l-210 73 -110 0 c-100 0 -115 -3 -169 -28 -91 -44
-175 -144 -191 -227 -2 -12 -7 -31 -11 -42 -8 -27 -8 -5821 1 -5868 31 -174
200 -241 403 -161 39 16 328 182 497 286 68 42 764 455 767 455 2 0 3 -57 3
-127 -1 -71 3 -141 8 -156 13 -38 50 -60 101 -60 46 1 52 4 265 132 80 48 371
222 646 386 275 164 508 305 519 314 35 31 37 43 50 311 2 41 5 94 5 116 l1
41 98 58 c467 277 479 284 505 324 48 72 68 153 73 290 3 70 6 156 8 194 2 39
0 67 -6 67 -9 0 -292 -80 -353 -99 -25 -9 -261 -77 -385 -113 -45 -13 -1225
-357 -1265 -369 -16 -5 -33 -9 -37 -9 -5 0 -8 73 -8 163 l0 163 78 26 c42 14
136 46 207 72 72 25 213 74 315 109 102 36 257 90 345 121 263 93 365 129 685
241 168 58 312 109 320 112 8 4 17 7 20 8 3 1 12 4 20 8 39 15 46 13 62 -17
l17 -31 1 40 c1 22 3 81 6 130 2 50 6 136 7 192 2 57 6 105 9 108 4 4 194
-299 283 -451 42 -72 119 -193 121 -191 1 1 5 38 8 82 4 44 9 98 11 120 2 22
7 76 10 120 3 44 8 98 10 120 3 22 7 72 10 110 6 80 14 170 20 235 3 25 7 79
10 120 4 73 10 141 20 245 2 28 7 82 10 120 3 39 8 93 11 121 l5 51 -103 46
-103 46 2 113 2 113 -67 29 c-37 16 -102 45 -144 64 l-77 35 3 55 c1 31 6 57
12 59 6 2 69 -23 142 -56 72 -33 134 -56 136 -53 2 4 5 52 6 107 1 55 3 125 5
155 2 30 6 143 10 250 11 293 23 603 30 770 2 47 7 162 10 255 4 94 8 203 9
243 2 39 0 72 -3 71 -3 0 -55 -43 -116 -95z m-1416 -1453 c10 -20 48 -90 84
-155 37 -65 69 -128 72 -140 3 -17 -43 -59 -266 -241 -149 -121 -280 -228
-292 -238 -113 -96 -537 -440 -543 -441 -5 -1 -9 92 -9 207 l-1 208 115 107
c63 59 129 121 147 137 17 17 91 86 164 155 158 149 294 277 404 382 88 84 93
84 125 19z m366 -666 c26 -49 51 -94 55 -100 8 -12 77 -136 98 -179 14 -28 14
-31 -8 -45 -19 -13 -341 -211 -750 -460 -52 -32 -156 -96 -230 -141 -74 -45
-196 -120 -270 -165 -74 -45 -154 -94 -177 -108 l-43 -27 0 193 0 193 103 74
c56 41 107 78 112 82 74 61 1057 780 1060 776 1 -2 24 -43 50 -93z m383 -697
c18 -35 43 -81 56 -103 12 -22 46 -83 74 -136 l52 -96 -103 -41 c-107 -43
-413 -167 -607 -247 -231 -95 -468 -192 -635 -259 -77 -32 -149 -61 -160 -66
-11 -6 -102 -43 -202 -84 l-183 -75 0 164 0 164 153 77 c83 42 391 197 682
344 824 417 830 420 835 420 3 0 20 -28 38 -62z"/>
<path d="M4831 6683 c-2 -49 -4 -113 -6 -143 -3 -50 -12 -274 -20 -515 -2 -49
-6 -153 -9 -230 -4 -77 -8 -201 -11 -275 -5 -129 -8 -212 -20 -520 -3 -74 -8
-178 -11 -231 l-5 -95 48 -21 c26 -12 73 -33 103 -46 50 -22 105 -47 215 -97
22 -10 366 -163 765 -340 399 -177 742 -330 763 -340 20 -10 34 -13 30 -7 -20
35 -649 1048 -671 1081 -15 21 -31 47 -37 57 -12 23 -380 614 -441 709 -34 53
-113 180 -214 345 -56 90 -141 226 -244 390 -65 105 -124 199 -130 210 -20 35
-98 155 -101 155 -1 0 -3 -39 -4 -87z"/>
<path d="M4948 4418 c0 -18 -2 -37 -3 -43 -1 -5 -5 -55 -9 -110 -4 -55 -9
-113 -11 -130 -4 -32 -11 -110 -20 -240 -3 -44 -8 -98 -10 -120 -3 -22 -7 -79
-10 -126 -3 -47 -7 -94 -9 -105 -2 -10 -7 -68 -11 -129 -4 -60 -9 -117 -10
-125 -2 -9 -6 -60 -10 -115 -3 -55 -9 -108 -11 -117 -3 -10 -4 -18 -2 -18 2 0
247 88 544 195 296 108 546 197 554 199 8 3 107 38 220 79 113 41 271 98 353
128 81 29 144 56 140 59 -5 4 -123 57 -263 120 -140 62 -273 121 -295 131
-181 83 -1125 499 -1132 499 -2 0 -4 -15 -5 -32z"/>
</g>
</svg>
